HIERARCHY
ROOT Hips
{
    OFFSET 0.000000 0.000000 0.000000
    CHANNELS 6 Xposition Yposition Zposition Zrotation Xrotation Yrotation
    JOINT Spine
    {
        OFFSET -0.000000 0.084000 0.000000
        CHANNELS 3 Zrotation Xrotation Yrotation
        JOINT Spine1
        {
            OFFSET -0.000000 0.216247 0.000000
            CHANNELS 3 Zrotation Xrotation Yrotation
            JOINT Neck
            {
                OFFSET -0.000000 0.215359 0.019578
                CHANNELS 3 Zrotation Xrotation Yrotation
                JOINT Head
                {
                    OFFSET -0.000000 0.143414 -0.020488
                    CHANNELS 3 Zrotation Xrotation Yrotation
                    End Site
                    {
                        OFFSET -0.000000 0.204877 0.000000
                    }
                }
            }
            JOINT LeftShoulder
            {
                OFFSET 0.040109 0.191272 -0.003631
                CHANNELS 3 Zrotation Xrotation Yrotation
                JOINT LeftArm
                {
                    OFFSET 0.138349 0.000000 0.000000
                    CHANNELS 3 Zrotation Xrotation Yrotation
                    JOINT LeftForeArm
                    {
                        OFFSET 0.335349 0.000000 0.000000
                        CHANNELS 3 Zrotation Xrotation Yrotation
                        JOINT LeftHand
                        {
                            OFFSET 0.276368 0.000000 0.000000
                            CHANNELS 3 Zrotation Xrotation Yrotation
                            End Site
                            {
                                OFFSET 0.153658 0.000000 0.000000
                            }
                        }
                    }
                }
            }
            JOINT RightShoulder
            {
                OFFSET -0.041533 0.191272 -0.003631
                CHANNELS 3 Zrotation Xrotation Yrotation
                JOINT RightArm
                {
                    OFFSET -0.138349 0.000000 0.000000
                    CHANNELS 3 Zrotation Xrotation Yrotation
                    JOINT RightForeArm
                    {
                        OFFSET -0.335349 0.000000 0.000000
                        CHANNELS 3 Zrotation Xrotation Yrotation
                        JOINT RightHand
                        {
                            OFFSET -0.276368 0.000000 0.000000
                            CHANNELS 3 Zrotation Xrotation Yrotation
                            End Site
                            {
                                OFFSET -0.153658 0.000000 0.000000
                            }
                        }
                    }
                }
            }
        }
    }
    JOINT LeftUpLeg
    {
        OFFSET 0.102438 0.000000 0.000000
        CHANNELS 3 Zrotation Xrotation Yrotation
        JOINT LeftLeg
        {
            OFFSET -0.000000 -0.442852 0.000000
            CHANNELS 3 Zrotation Xrotation Yrotation
            JOINT LeftFoot
            {
                OFFSET -0.000000 -0.461647 0.000000
                CHANNELS 3 Zrotation Xrotation Yrotation
                JOINT LeftToeBase
                {
                    OFFSET -0.000000 -0.066585 0.153658
                    CHANNELS 3 Zrotation Xrotation Yrotation
                    End Site
                    {
                        OFFSET -0.000000 0.000000 0.040975
                    }
                }
            }
        }
    }
    JOINT RightUpLeg
    {
        OFFSET -0.102438 0.000000 0.000000
        CHANNELS 3 Zrotation Xrotation Yrotation
        JOINT RightLeg
        {
            OFFSET -0.000000 -0.442852 0.000000
            CHANNELS 3 Zrotation Xrotation Yrotation
            JOINT RightFoot
            {
                OFFSET -0.000000 -0.461647 0.000000
                CHANNELS 3 Zrotation Xrotation Yrotation
                JOINT RightToeBase
                {
                    OFFSET -0.000000 -0.066585 0.153658
                    CHANNELS 3 Zrotation Xrotation Yrotation
                    End Site
                    {
                        OFFSET -0.000000 0.000000 0.040975
                    }
                }
            }
        }
    }
}
MOTION
Frames:    7
Frame Time:    0.010000
-0.525821    0.441241    0.165478    -2.480494    -8.825083    -6.375598    -1.241738    6.506237    -0.988247    6.728822    -3.318790    -0.157906    -11.814909    18.154619    1.599524    2.719830    -3.486775    1.920236    8.780642    1.870039    3.194045    -7.982185    -6.903690    -2.761177    -2.672179    -3.100952    7.324650    6.120869    -2.855852    1.391003    -16.362906    -4.386354    11.205215    14.925012    -15.575698    -2.971129    -5.975235    -2.596147    6.816854    -37.932392    -3.707958    4.274379    150.036758    -68.191856    132.011261    -131.289581    65.538780    116.620804    2.921681    -12.351256    2.436090    0.000000    0.000000    0.000000    177.990433    -72.795616    -179.632614    133.627121    75.331985    -142.217606    -13.999821    -8.534720    -0.740161    0.000000    0.000000    0.000000    
-0.525819    0.441251    0.165478    -2.482287    -8.824205    -6.373287    -1.240915    6.501935    -0.993274    6.718638    -3.303123    -0.160720    -11.805400    18.167835    1.597601    2.722370    -3.509384    1.917915    8.784115    1.899382    3.201195    -7.974892    -6.972088    -2.774101    -2.685996    -3.077220    7.330504    6.104024    -2.831735    1.382496    -16.359898    -4.383950    11.197703    14.934227    -15.565524    -2.969310    -5.993976    -2.596672    6.832252    -37.925095    -3.702387    4.263010    150.039291    -68.193626    132.010681    -131.284439    65.538483    116.615814    2.868605    -12.366238    2.414011    0.000000    0.000000    0.000000    177.995514    -72.796616    -179.630051    133.630905    75.334076    -142.220306    -14.009738    -8.533036    -0.741031    0.000000    0.000000    0.000000    
-0.525817    0.441261    0.165477    -2.484121    -8.823340    -6.370951    -1.240493    6.497421    -0.998325    6.709789    -3.287193    -0.163628    -11.797137    18.180805    1.595831    2.724776    -3.531590    1.915699    8.786233    1.927991    3.208083    -7.967452    -7.038464    -2.786578    -2.699096    -3.054117    7.336164    6.086182    -2.808320    1.374282    -16.358273    -4.381789    11.190251    14.943975    -15.556238    -2.967288    -6.012281    -2.597333    6.847303    -37.918854    -3.697201    4.252252    150.042114    -68.195488    132.010513    -131.279343    65.538216    116.610603    2.821168    -12.381063    2.393687    0.000000    0.000000    0.000000    178.000885    -72.797585    -179.627075    133.634369    75.336082    -142.222458    -14.018608    -8.531188    -0.741822    0.000000    0.000000    0.000000    
-0.525816    0.441271    0.165477    -2.486052    -8.822406    -6.368614    -1.240188    6.492361    -1.003431    6.702015    -3.270853    -0.166441    -11.790084    18.194225    1.594170    2.726903    -3.553889    1.913430    8.786990    1.955477    3.213997    -7.960104    -7.101571    -2.798223    -2.710791    -3.032268    7.341591    6.066650    -2.786244    1.366486    -16.357773    -4.380173    11.183017    14.954060    -15.547807    -2.965430    -6.029932    -2.598511    6.861751    -37.914364    -3.692996    4.242455    150.045547    -68.197220    132.010956    -131.274414    65.538010    116.605644    2.777621    -12.394773    2.375097    0.000000    0.000000    0.000000    178.006531    -72.798470    -179.623703    133.637527    75.337921    -142.224014    -14.026014    -8.528971    -0.742316    0.000000    0.000000    0.000000    
-0.525814    0.441279    0.165477    -2.488155    -8.821580    -6.366339    -1.239892    6.486754    -1.008448    6.695156    -3.254102    -0.169270    -11.784049    18.208309    1.592541    2.728495    -3.576024    1.911086    8.786644    1.981279    3.218461    -7.953178    -7.159925    -2.808585    -2.720760    -3.012367    7.346559    6.045337    -2.766204    1.359299    -16.358168    -4.378953    11.175967    14.964155    -15.541205    -2.963511    -6.046300    -2.599869    6.875384    -37.911602    -3.689639    4.234002    150.049500    -68.199020    132.012024    -131.269791    65.537888    116.600967    2.737779    -12.407411    2.358259    0.000000    0.000000    0.000000    178.012619    -72.799393    -179.619659    133.639664    75.339371    -142.224106    -14.032137    -8.526340    -0.742739    0.000000    0.000000    0.000000    
-0.525813    0.441287    0.165477    -2.490388    -8.820889    -6.364163    -1.239977    6.480399    -1.013700    6.689947    -3.236784    -0.172224    -11.779680    18.223452    1.591315    2.729401    -3.598380    1.908804    8.784720    2.005216    3.221886    -7.946657    -7.213188    -2.817723    -2.729034    -2.994685    7.351108    6.022604    -2.748502    1.352747    -16.359619    -4.378407    11.169967    14.973804    -15.536777    -2.961900    -6.060744    -2.601284    6.888154    -37.910255    -3.687115    4.227165    150.053986    -68.200768    132.013611    -131.265854    65.537712    116.597206    2.700369    -12.418848    2.343138    0.000000    0.000000    0.000000    178.018982    -72.800339    -179.615082    133.640930    75.340385    -142.222900    -14.037487    -8.523560    -0.743256    0.000000    0.000000    0.000000    
-0.525811    0.441294    0.165479    -2.492845    -8.820724    -6.362142    -1.239727    6.473548    -1.019157    6.685112    -3.218749    -0.175189    -11.776049    18.239199    1.590187    2.729699    -3.620170    1.906521    8.782204    2.027066    3.223933    -7.940996    -7.261188    -2.825580    -2.735654    -2.979520    7.355144    5.999497    -2.733384    1.346904    -16.361002    -4.378716    11.164698    14.982355    -15.534491    -2.960540    -6.073036    -2.602345    6.900216    -37.909939    -3.684900    4.221775    150.058441    -68.202728    132.014954    -131.262360    65.537247    116.593857    2.668661    -12.429182    2.330237    0.000000    0.000000    0.000000    178.025681    -72.801689    -179.609756    133.640869    75.340759    -142.220062    -14.042313    -8.520937    -0.743915    0.000000    0.000000    0.000000    
